<svg version="1.0" xmlns="http://www.w3.org/2000/svg"
 width="296.000000pt" height="171.000000pt" viewBox="0 0 296.000000 171.000000"
 preserveAspectRatio="xMidYMid meet">

<g transform="translate(0.000000,171.000000) scale(0.100000,-0.100000)"
fill="#fff" stroke="none">
<path d="M1325 1243 c-90 -19 -187 -61 -278 -119 -76 -49 -221 -189 -232 -224
-11 -36 115 -180 245 -277 115 -86 299 -153 424 -153 111 0 261 45 373 111 73
44 203 167 260 247 l45 62 -38 48 c-206 252 -509 368 -799 305z m349 -127
c106 -33 198 -88 279 -165 l70 -67 -68 -72 c-210 -223 -477 -283 -722 -162
-108 53 -290 213 -280 244 2 6 35 37 73 69 201 170 427 223 648 153z"/>
<path d="M1395 1071 c-95 -43 -148 -148 -127 -249 35 -167 235 -238 366 -130
129 106 98 318 -56 382 -50 21 -134 20 -183 -3z m74 -76 c31 -16 41 -33 41
-71 0 -59 -56 -96 -110 -74 -66 27 -69 111 -5 148 27 15 41 15 74 -3z"/>
</g>
</svg>
